<svg xmlns="http://www.w3.org/2000/svg" xmlns:xlink="http://www.w3.org/1999/xlink" version="1.1" x="0px" y="0px" viewBox="0 0 64 80" style="enable-background:new 0 0 64 64;" xml:space="preserve"><path d="M18,40h-2c0,0.551-0.449,1-1,1s-1-0.449-1-1h-2c0,1.654,1.346,3,3,3S18,41.654,18,40z"/><path d="M23,43c1.654,0,3-1.346,3-3h-2c0,0.551-0.449,1-1,1s-1-0.449-1-1h-2C20,41.654,21.346,43,23,43z"/><path d="M3,62h32c0.552,0,1-0.448,1-1c0-5.052-3.947-8.762-9.462-8.989C28.725,49.971,30,47.108,30,44c0-6.065-4.935-11-11-11  S8,37.935,8,44c0,3.108,1.275,5.971,3.462,8.011C5.947,52.238,2,55.948,2,61C2,61.552,2.448,62,3,62z M12,54h2.663  c0.466,0,0.871-0.322,0.975-0.777s-0.12-0.921-0.54-1.124C11.954,50.581,10,47.478,10,44c0-4.962,4.038-9,9-9s9,4.038,9,9  c0,3.478-1.954,6.581-5.098,8.1c-0.42,0.203-0.644,0.669-0.54,1.124S22.871,54,23.337,54H26c4.319,0,7.444,2.42,7.933,6H4.067  C4.556,56.42,7.681,54,12,54z"/><path d="M19,45c-2.243,0-4,1.318-4,3s1.757,3,4,3s4-1.318,4-3S21.243,45,19,45z M19,49c-1.221,0-2-0.592-2-1s0.779-1,2-1  s2,0.592,2,1S20.221,49,19,49z"/><path d="M2,5v23c0,1.654,1.346,3,3,3h36.424l-7.329,15.574c-0.205,0.435-0.071,0.954,0.318,1.236C34.589,47.938,34.795,48,35,48  c0.248,0,0.495-0.092,0.687-0.273L53.397,31H59c1.654,0,3-1.346,3-3V5c0-1.654-1.346-3-3-3H5C3.346,2,2,3.346,2,5z M60,5v23  c0,0.551-0.449,1-1,1h-6c-0.255,0-0.501,0.098-0.687,0.273L38.154,42.646l5.75-12.22c0.146-0.31,0.123-0.672-0.061-0.961  C43.661,29.175,43.342,29,43,29H5c-0.551,0-1-0.449-1-1V5c0-0.551,0.449-1,1-1h54C59.551,4,60,4.449,60,5z"/><rect x="7" y="7" width="7" height="2"/><rect x="16" y="7" width="13" height="2"/><path d="M54,12c0-1.654-1.346-3-3-3s-3,1.346-3,3s1.346,3,3,3S54,13.654,54,12z M50,12c0-0.551,0.449-1,1-1s1,0.449,1,1  s-0.449,1-1,1S50,12.551,50,12z"/><path d="M51,27c3.991,0,7-1.72,7-4c0-1.684-1.624-3.058-4.155-3.665l1.943-3.109C56.581,14.958,57,13.497,57,12c0-3.309-2.691-6-6-6  s-6,2.691-6,6c0,1.497,0.419,2.958,1.212,4.226l1.943,3.11C45.624,19.942,44,21.317,44,23C44,25.28,47.009,27,51,27z M47,12  c0-2.206,1.794-4,4-4s4,1.794,4,4c0,1.121-0.314,2.216-0.908,3.166L51,20.113l-3.092-4.948C47.314,14.216,47,13.121,47,12z   M49.286,21.144l0.866,1.386C50.335,22.822,50.655,23,51,23s0.665-0.178,0.848-0.47l0.866-1.386C54.854,21.495,56,22.406,56,23  c0,0.815-1.948,2-5,2s-5-1.185-5-2C46,22.406,47.146,21.495,49.286,21.144z"/><path d="M7,27h10c0.552,0,1-0.448,1-1v-3c0-1.564-0.92-2.938-2.262-3.588C15.91,18.964,16,18.486,16,18c0-2.206-1.794-4-4-4  s-4,1.794-4,4c0,0.486,0.09,0.964,0.262,1.412C6.92,20.062,6,21.436,6,23v3C6,26.552,6.448,27,7,27z M8,23  c0-1.04,0.819-1.91,1.864-1.982c0.383-0.026,0.718-0.27,0.86-0.626s0.068-0.764-0.191-1.047C10.189,18.97,10,18.493,10,18  c0-1.103,0.897-2,2-2s2,0.897,2,2c0,0.493-0.189,0.97-0.533,1.345c-0.259,0.283-0.334,0.69-0.191,1.047s0.477,0.6,0.86,0.626  C15.181,21.09,16,21.96,16,23v2H8V23z"/><rect x="20" y="25" width="2" height="2"/><rect x="24" y="24" width="2" height="2"/><rect x="28" y="23" width="2" height="2"/><rect x="32" y="22" width="2" height="2"/><path d="M37.293,20.707L38.586,22H36v2h2.586l-1.293,1.293l1.414,1.414l3-3c0.391-0.391,0.391-1.023,0-1.414l-3-3L37.293,20.707z"/><rect x="20" y="12" width="19" height="2"/><text x="0" y="79" fill="#000000" font-size="5px" font-weight="bold" font-family="'Helvetica Neue', Helvetica, Arial-Unicode, Arial, Sans-serif">Created by Nithinan Tatah</text><text x="0" y="84" fill="#000000" font-size="5px" font-weight="bold" font-family="'Helvetica Neue', Helvetica, Arial-Unicode, Arial, Sans-serif">from the Noun Project</text></svg>